<svg id="Group_1463" data-name="Group 1463" xmlns="http://www.w3.org/2000/svg" xmlns:xlink="http://www.w3.org/1999/xlink" width="19.218" height="19.219" viewBox="0 0 19.218 19.219">
  <defs>
    <clipPath id="clip-path">
      <rect id="Rectangle_346" data-name="Rectangle 346" width="19.218" height="19.219" fill="#7e52e2"/>
    </clipPath>
  </defs>
  <g id="Group_1435" data-name="Group 1435" clip-path="url(#clip-path)">
    <path id="Path_91519" data-name="Path 91519" d="M0,10.175V9.048c.011-.066.025-.132.034-.2.047-.346.074-.7.14-1.039A9.436,9.436,0,0,1,3.157,2.5,9.351,9.351,0,0,1,7.974.147C8.33.086,8.69.048,9.048,0h1.126c.247.029.5.053.742.089a9.37,9.37,0,0,1,5.721,2.978,9.359,9.359,0,0,1,2.49,7.827,9.154,9.154,0,0,1-2.972,5.742,9.366,9.366,0,0,1-8.343,2.409A9.24,9.24,0,0,1,2.5,16.067,9.352,9.352,0,0,1,.147,11.248c-.061-.356-.1-.715-.147-1.073m12.165,4.458a2.749,2.749,0,0,0,1.171-.247,4.11,4.11,0,0,0,1.146-.925.434.434,0,0,0,0-.724q-.827-.831-1.658-1.66a.432.432,0,0,0-.711,0c-.3.306-.6.616-.91.921a.875.875,0,0,1-1.219.1,12.649,12.649,0,0,1-2.8-2.746A.875.875,0,0,1,7.27,8.074c.313-.315.63-.626.941-.943a.417.417,0,0,0,0-.671q-.846-.853-1.7-1.7a.42.42,0,0,0-.671-.011c-.185.177-.367.359-.543.545a2.508,2.508,0,0,0-.719,2.161A5.04,5.04,0,0,0,5.18,9.1a11.251,11.251,0,0,0,5.12,4.966,5.014,5.014,0,0,0,1.865.564" fill="#7e52e2"/>
  </g>
</svg>
