<svg xmlns="http://www.w3.org/2000/svg" width="26" height="20.223" viewBox="0 0 26 20.223">
  <path id="Icon_awesome-comments" data-name="Icon awesome-comments" d="M18.778,9.472c0-3.99-4.2-7.222-9.389-7.222S0,5.482,0,9.472a6.124,6.124,0,0,0,1.715,4.153A10.16,10.16,0,0,1,.1,16.085a.359.359,0,0,0-.068.393.354.354,0,0,0,.33.217,7.948,7.948,0,0,0,4-1.128,11.486,11.486,0,0,0,5.024,1.128C14.576,16.695,18.778,13.463,18.778,9.472ZM24.285,19.4A6.115,6.115,0,0,0,26,15.25c0-3.02-2.415-5.606-5.837-6.685a6.708,6.708,0,0,1,.059.907c0,4.78-4.862,8.667-10.833,8.667a13.533,13.533,0,0,1-1.431-.086c1.422,2.6,4.762,4.419,8.653,4.419a11.423,11.423,0,0,0,5.024-1.128,7.948,7.948,0,0,0,4,1.128.356.356,0,0,0,.33-.217.362.362,0,0,0-.068-.393A10.052,10.052,0,0,1,24.285,19.4Z" transform="translate(0 -2.25)" fill="#7e52e2"/>
</svg>
