<svg id="Group_1421" data-name="Group 1421" xmlns="http://www.w3.org/2000/svg" xmlns:xlink="http://www.w3.org/1999/xlink" width="20.019" height="20.02" viewBox="0 0 20.019 20.02">
  <defs>
    <clipPath id="clip-path">
      <rect id="Rectangle_327" data-name="Rectangle 327" width="20.019" height="20.019" fill="#7e52e2"/>
    </clipPath>
  </defs>
  <g id="Group_1421-2" data-name="Group 1421" transform="translate(0 0)" clip-path="url(#clip-path)">
    <path id="Path_8366" data-name="Path 8366" d="M10.009,1.8c2.673,0,2.989.01,4.045.058a5.524,5.524,0,0,1,1.858.345,3.1,3.1,0,0,1,1.151.749,3.1,3.1,0,0,1,.749,1.15,5.572,5.572,0,0,1,.345,1.859c.048,1.055.058,1.372.058,4.044s-.01,2.989-.058,4.045a5.56,5.56,0,0,1-.345,1.858,3.315,3.315,0,0,1-1.9,1.9,5.524,5.524,0,0,1-1.858.345c-1.056.048-1.372.058-4.045.058s-2.989-.011-4.045-.058a5.524,5.524,0,0,1-1.858-.345,3.106,3.106,0,0,1-1.151-.749,3.1,3.1,0,0,1-.749-1.151,5.56,5.56,0,0,1-.345-1.858C1.813,13,1.8,12.682,1.8,10.009s.01-2.989.058-4.044a5.572,5.572,0,0,1,.345-1.859,3.1,3.1,0,0,1,.749-1.15,3.1,3.1,0,0,1,1.151-.749,5.524,5.524,0,0,1,1.858-.345C7.02,1.813,7.336,1.8,10.009,1.8m0-1.8C7.291,0,6.95.012,5.882.06A7.35,7.35,0,0,0,3.453.526,4.91,4.91,0,0,0,1.679,1.68,4.9,4.9,0,0,0,.526,3.453,7.315,7.315,0,0,0,.06,5.883C.012,6.951,0,7.291,0,10.009s.012,3.059.06,4.127a7.315,7.315,0,0,0,.465,2.43,4.9,4.9,0,0,0,1.154,1.772,4.911,4.911,0,0,0,1.773,1.155,7.35,7.35,0,0,0,2.429.465c1.068.049,1.409.06,4.127.06s3.059-.012,4.127-.06a7.35,7.35,0,0,0,2.429-.465,5.116,5.116,0,0,0,2.927-2.927,7.315,7.315,0,0,0,.465-2.43c.049-1.068.06-1.408.06-4.127s-.012-3.058-.06-4.126a7.315,7.315,0,0,0-.465-2.43A4.9,4.9,0,0,0,18.339,1.68,4.91,4.91,0,0,0,16.566.526,7.35,7.35,0,0,0,14.136.06C13.069.012,12.727,0,10.009,0" transform="translate(0 0)" fill="#7e52e2"/>
    <path id="Path_8367" data-name="Path 8367" d="M10.634,5.494a5.14,5.14,0,1,0,5.14,5.14,5.14,5.14,0,0,0-5.14-5.14m0,8.477a3.337,3.337,0,1,1,3.337-3.337,3.337,3.337,0,0,1-3.337,3.337" transform="translate(-0.625 -0.625)" fill="#7e52e2"/>
    <path id="Path_8368" data-name="Path 8368" d="M18.371,5.111a1.2,1.2,0,1,1-1.2-1.2,1.2,1.2,0,0,1,1.2,1.2" transform="translate(-1.816 -0.445)" fill="#7e52e2"/>
  </g>
</svg>
