<svg id="Group_1461" data-name="Group 1461" xmlns="http://www.w3.org/2000/svg" xmlns:xlink="http://www.w3.org/1999/xlink" width="15.233" height="21.069" viewBox="0 0 15.233 21.069">
  <defs>
    <clipPath id="clip-path">
      <rect id="Rectangle_344" data-name="Rectangle 344" width="15.233" height="21.069" fill="#7e52e2"/>
    </clipPath>
  </defs>
  <g id="Group_1431" data-name="Group 1431" clip-path="url(#clip-path)">
    <path id="Path_91516" data-name="Path 91516" d="M7.127,0H8.2l-.21.012L7.861.02a.126.126,0,0,0,.057.012c.152,0,.306,0,.457.014.236.026.472.059.706.1a7.569,7.569,0,0,1,1.513.464,7.327,7.327,0,0,1,1.592.93,7.6,7.6,0,0,1,.92.811,7.7,7.7,0,0,1,1.639,2.6,8.177,8.177,0,0,1,.308,1.048c.049.213.074.432.112.647a5.824,5.824,0,0,1,.069,1.009,7.059,7.059,0,0,1-.171,1.493,13.018,13.018,0,0,1-.648,2.1,21.116,21.116,0,0,1-.9,1.924c-.156.3-.31.6-.481.884-.306.515-.617,1.028-.941,1.531s-.641.981-.983,1.456c-.441.611-.9,1.211-1.357,1.808-.3.384-.6.76-.912,1.133-.233.283-.47.563-.718.833a.666.666,0,0,1-1.023,0c-.091-.1-.18-.193-.265-.294-.263-.312-.53-.621-.783-.94q-.595-.748-1.174-1.509c-.593-.776-1.148-1.579-1.687-2.394q-.612-.926-1.151-1.9A22.5,22.5,0,0,1,.884,11.442,12.093,12.093,0,0,1,.109,8.867a6.611,6.611,0,0,1-.1-.861,7.707,7.707,0,0,1,.085-1.6,7.926,7.926,0,0,1,.293-1.2,7.535,7.535,0,0,1,.874-1.784A7.859,7.859,0,0,1,2.123,2.35,7.75,7.75,0,0,1,4.182.826,7.153,7.153,0,0,1,5.561.291,6.559,6.559,0,0,1,7.076.037L7.317.03l.05,0V.02Zm.484,11.469A3.839,3.839,0,1,0,3.774,7.623a3.847,3.847,0,0,0,3.837,3.846" transform="translate(0.001)" fill="#7e52e2"/>
  </g>
</svg>
