<svg xmlns="http://www.w3.org/2000/svg" width="16.159" height="16.121" viewBox="0 0 16.159 16.121">
  <path id="linkedin" d="M12.072,8.519a1.356,1.356,0,0,0-1.135-.4A1.62,1.62,0,0,0,9.5,8.727a2.979,2.979,0,0,0-.416,1.7v5.525a.391.391,0,0,1-.416.416H5.79a.429.429,0,0,1-.284-.114.379.379,0,0,1-.133-.3V5.737a.459.459,0,0,1,.416-.416h2.8a.382.382,0,0,1,.246.076.4.4,0,0,1,.133.227v.189a.652.652,0,0,1,.038.265,3.968,3.968,0,0,1,2.876-1.022,4.527,4.527,0,0,1,3.141,1.022,3.815,3.815,0,0,1,1.135,2.989v6.888a.379.379,0,0,1-.133.3.429.429,0,0,1-.284.114H12.791a.429.429,0,0,1-.284-.114.379.379,0,0,1-.133-.3V9.749a2.028,2.028,0,0,0-.3-1.23ZM3.33,3.6a1.849,1.849,0,0,1-1.381.587A1.851,1.851,0,0,1,.568,3.6,1.941,1.941,0,0,1,0,2.2,1.884,1.884,0,0,1,.568.818,1.877,1.877,0,0,1,1.949.25,1.88,1.88,0,0,1,3.33.818,1.884,1.884,0,0,1,3.9,2.2,1.937,1.937,0,0,1,3.33,3.6Zm.492,2.138V15.955a.379.379,0,0,1-.133.3.429.429,0,0,1-.284.114H.53a.409.409,0,0,1-.3-.114.409.409,0,0,1-.114-.3V5.737a.429.429,0,0,1,.114-.284.379.379,0,0,1,.3-.133H3.406a.459.459,0,0,1,.416.416Z" transform="translate(0 -0.25)" fill="#7e52e2"/>
</svg>
