<svg id="Group_1462" data-name="Group 1462" xmlns="http://www.w3.org/2000/svg" xmlns:xlink="http://www.w3.org/1999/xlink" width="19.098" height="14.304" viewBox="0 0 19.098 14.304">
  <defs>
    <clipPath id="clip-path">
      <rect id="Rectangle_345" data-name="Rectangle 345" width="19.098" height="14.304" fill="#7e52e2"/>
    </clipPath>
  </defs>
  <g id="Group_1433" data-name="Group 1433" clip-path="url(#clip-path)">
    <path id="Path_91517" data-name="Path 91517" d="M0,116.053v-8.825c.02.015.04.03.061.044.288.191.578.382.866.574l3.592,2.394,2.5,1.668c.257.171.516.34.769.517a3.111,3.111,0,0,0,1.229.54,2.989,2.989,0,0,0,1.238-.04,2.874,2.874,0,0,0,.941-.425l2.461-1.64,4.352-2.9c.355-.237.709-.476,1.063-.714a.087.087,0,0,1,.021-.006v.063q0,4.2,0,8.405a1.842,1.842,0,0,1-.077.551,1.716,1.716,0,0,1-.65.928,1.878,1.878,0,0,1-1.117.338q-4.235,0-8.471,0H1.856a1.892,1.892,0,0,1-.584-.07,1.759,1.759,0,0,1-1.086-.915,1.14,1.14,0,0,1-.149-.56.188.188,0,0,0,0-.034H.026l-.026.11" transform="translate(0 -103.221)" fill="#7e52e2"/>
    <path id="Path_91518" data-name="Path 91518" d="M0,2.05V1.51L.021,1.6A1.643,1.643,0,0,1,.568.485,1.66,1.66,0,0,1,1.722.019L1.576,0H17.549l-.186.018a.37.37,0,0,0,.087.01,1.869,1.869,0,0,1,.241.024A1.7,1.7,0,0,1,18.822.84a1.682,1.682,0,0,1-.516,2.347q-.975.645-1.946,1.3L13.392,6.463,12.3,7.189,10.556,8.356a1.845,1.845,0,0,1-.882.31A1.68,1.68,0,0,1,8.6,8.387c-.245-.158-.489-.319-.732-.481L6.128,6.747,4.516,5.673,2.884,4.586q-.762-.507-1.523-1.015c-.23-.154-.461-.3-.685-.466a1.576,1.576,0,0,1-.632-.988,1.25,1.25,0,0,1-.011-.2h0L0,2.05" fill="#7e52e2"/>
  </g>
</svg>
