<svg xmlns="http://www.w3.org/2000/svg" width="14.92" height="18.136" viewBox="0 0 14.92 18.136">
  <path id="pinterest" d="M4.331,7.189a3.149,3.149,0,0,1,.613-1.958,1.816,1.816,0,0,1,1.487-.809,1.338,1.338,0,0,1,1.116.468A1.792,1.792,0,0,1,7.919,6.04,5.468,5.468,0,0,1,7.788,7.1q-.175.6-.437,1.447-.263.809-.394,1.32a1.517,1.517,0,0,0,.328,1.469,1.813,1.813,0,0,0,1.422.618,2.888,2.888,0,0,0,2.516-1.682,7.916,7.916,0,0,0,.984-4.066A3.936,3.936,0,0,0,11,3.23,4.714,4.714,0,0,0,7.613,2.08a5.351,5.351,0,0,0-3.96,1.511A4.965,4.965,0,0,0,2.144,7.232a3.222,3.222,0,0,0,.744,2.129.581.581,0,0,1,.175.6,5.722,5.722,0,0,0-.219.852.472.472,0,0,1-.24.277.516.516,0,0,1-.328.021A3.261,3.261,0,0,1,.569,9.532,5.515,5.515,0,0,1,0,6.977,6,6,0,0,1,.306,5.1a6.226,6.226,0,0,1,.962-1.81A7.663,7.663,0,0,1,2.844,1.74,7.361,7.361,0,0,1,5.075.655,9.606,9.606,0,0,1,7.919.25a7.945,7.945,0,0,1,2.866.511,6.648,6.648,0,0,1,2.231,1.363,6.166,6.166,0,0,1,1.4,1.98,5.647,5.647,0,0,1,.5,2.32A8.2,8.2,0,0,1,13.257,11.7a5.237,5.237,0,0,1-4.288,2.086A3.615,3.615,0,0,1,7.328,13.4a2.393,2.393,0,0,1-1.072-.936q-.656,2.469-.788,2.938a9.828,9.828,0,0,1-1.575,2.98H3.15a10.1,10.1,0,0,1,.088-3.576L4.682,8.935A3.979,3.979,0,0,1,4.331,7.189Z" transform="translate(0 -0.25)" fill="#7e52e2"/>
</svg>
