<svg xmlns="http://www.w3.org/2000/svg" width="22.7" height="25" viewBox="0 0 22.7 25">
  <g id="Icon_feather-share-2" data-name="Icon feather-share-2" transform="translate(-3.5 -2)">
    <path id="Path_91510" data-name="Path 91510" d="M29.4,6.45A3.45,3.45,0,1,1,25.95,3,3.45,3.45,0,0,1,29.4,6.45Z" transform="translate(-4.2 0)" fill="none" stroke="#7e52e2" stroke-linecap="round" stroke-linejoin="round" stroke-width="2"/>
    <path id="Path_91511" data-name="Path 91511" d="M11.4,16.95A3.45,3.45,0,1,1,7.95,13.5,3.45,3.45,0,0,1,11.4,16.95Z" transform="translate(0 -2.45)" fill="none" stroke="#7e52e2" stroke-linecap="round" stroke-linejoin="round" stroke-width="2"/>
    <path id="Path_91512" data-name="Path 91512" d="M29.4,27.45A3.45,3.45,0,1,1,25.95,24,3.45,3.45,0,0,1,29.4,27.45Z" transform="translate(-4.2 -4.9)" fill="none" stroke="#7e52e2" stroke-linecap="round" stroke-linejoin="round" stroke-width="2"/>
    <path id="Path_91513" data-name="Path 91513" d="M12.885,20.265l7.854,4.577" transform="translate(-1.957 -4.029)" fill="none" stroke="#7e52e2" stroke-linecap="round" stroke-linejoin="round" stroke-width="2"/>
    <path id="Path_91514" data-name="Path 91514" d="M20.728,9.765l-7.843,4.577" transform="translate(-1.957 -1.579)" fill="none" stroke="#7e52e2" stroke-linecap="round" stroke-linejoin="round" stroke-width="2"/>
  </g>
</svg>
