<svg xmlns="http://www.w3.org/2000/svg" width="20.151" height="16.121" viewBox="0 0 20.151 16.121">
  <path id="twitter" d="M20.42,1.914a8.573,8.573,0,0,1-2.071,2.1q.013.176.013.529a11.4,11.4,0,0,1-.486,3.268,11.733,11.733,0,0,1-1.476,3.13A12.359,12.359,0,0,1,14.04,13.6a10.54,10.54,0,0,1-3.3,1.839,12.255,12.255,0,0,1-4.13.686A11.6,11.6,0,0,1,.269,14.3a8.967,8.967,0,0,0,1,.05,8.162,8.162,0,0,0,5.127-1.738,4.067,4.067,0,0,1-2.4-.812,3.975,3.975,0,0,1-1.457-2.01,5.331,5.331,0,0,0,.78.063A4.341,4.341,0,0,0,4.4,9.71a4.073,4.073,0,0,1-2.372-1.4,3.892,3.892,0,0,1-.939-2.588v-.05a4.142,4.142,0,0,0,1.867.516A4.085,4.085,0,0,1,1.612,4.736a3.922,3.922,0,0,1-.5-1.94A3.939,3.939,0,0,1,1.676.743a11.665,11.665,0,0,0,3.765,3A11.649,11.649,0,0,0,10.192,5a4.454,4.454,0,0,1-.1-.932A3.891,3.891,0,0,1,11.3,1.19,4.011,4.011,0,0,1,14.219,0a4.01,4.01,0,0,1,3.018,1.285A8.158,8.158,0,0,0,19.857.3a3.964,3.964,0,0,1-1.816,2.242,8.331,8.331,0,0,0,2.378-.63Z" transform="translate(-0.269)" fill="#7e52e2"/>
</svg>
